<svg width="50" height="51" viewBox="0 0 50 51" fill="none" xmlns="http://www.w3.org/2000/svg">
<g style="mix-blend-mode:lighten" clip-path="url(#clip0_420_840)">
<path d="M33.6955 2.37316C30.9872 1.36827 28.0579 0.818176 24.9999 0.818176C21.9419 0.818176 19.0126 1.36827 16.3043 2.37316L14.1304 25.8182L16.3043 49.2632C19.0126 50.2682 21.9419 50.8182 24.9999 50.8182C28.0579 50.8182 30.9872 50.2682 33.6955 49.2632L35.8694 25.8182L33.6955 2.37316Z" fill="#FFDA44"/>
<path d="M49.9999 25.8182C49.9999 15.0691 43.2156 5.90546 33.6956 2.37323V49.2634C43.2156 45.7308 49.9999 36.5674 49.9999 25.8182V25.8182Z" fill="#D80027"/>
<path d="M0 25.8182C0 36.5674 6.78437 45.7308 16.3044 49.2633V2.37323C6.78437 5.90546 0 15.0691 0 25.8182V25.8182Z" fill="black"/>
</g>
<defs>
<clipPath id="clip0_420_840">
<rect width="50" height="50" fill="white" transform="translate(0 0.818176)"/>
</clipPath>
</defs>
</svg>
